<?xml version="1.0" encoding="iso-8859-1"?>
<!-- Uploaded to: SVG Repo, www.svgrepo.com, Generator: SVG Repo Mixer Tools -->
<svg fill="#000000" height="800px" width="800px" version="1.1" id="Layer_1" xmlns="http://www.w3.org/2000/svg" xmlns:xlink="http://www.w3.org/1999/xlink" 
	 viewBox="0 0 449 449" xml:space="preserve">
<g>
	<g>
		<g>
			<path d="M437.3,194.5c-92.4-99.2-172.8-114-212.8-114s-120.4,14.8-212.8,114c-15.6,16.8-15.6,43.2,0,60
				c40,42.8,120.8,114,212.8,114c40,0,120.4-14.8,212.8-114C452.9,237.7,452.9,211.3,437.3,194.5z M425.3,243.3
				c-91.2,98.4-170.8,109.2-200.8,109.2c-85.6,0-162.8-68.4-200.8-109.2c-10-10.4-10-27.2,0-38c91.2-98,170.8-108.8,200.8-108.8
				s109.6,10.8,200.8,109.2C435.3,216.1,435.3,232.9,425.3,243.3z"/>
			<path d="M234.9,224.9l50.8-50.8c3.2-3.2,3.2-8,0-11.2c-3.2-3.2-8-3.2-11.2,0l-50.8,50.8l-51.2-50.8c-3.2-3.2-8-3.2-11.2,0
				c-3.2,3.2-3.2,8,0,11.2l50.8,50.8l-50.8,51.2c-3.2,3.2-3.2,8,0,11.2c1.6,1.6,3.6,2.4,5.6,2.4s4-0.8,5.6-2.4l51.2-50.8l50.8,50.8
				c1.6,1.6,3.6,2.4,5.6,2.4s4-0.8,5.6-2.4c3.2-3.2,3.2-8,0-11.2L234.9,224.9z"/>
		</g>
	</g>
</g>
</svg>