<svg xmlns="http://www.w3.org/2000/svg" xmlns:xlink="http://www.w3.org/1999/xlink" version="1.1" width="256" height="256" viewBox="0 0 256 256" xml:space="preserve">

<defs>
</defs>
<g style="stroke: none; stroke-width: 0; stroke-dasharray: none; stroke-linecap: butt; stroke-linejoin: miter; stroke-miterlimit: 10; fill: none; fill-rule: nonzero; opacity: 1;" transform="translate(1.4065934065934016 1.4065934065934016) scale(2.81 2.81)" >
	<path d="M 70.766 90 H 19.234 c -4.11 0 -7.453 -3.344 -7.453 -7.453 v -39.29 c 0 -3.44 2.338 -6.422 5.686 -7.25 c 18.269 -4.523 36.796 -4.524 55.066 0 c 3.349 0.829 5.687 3.81 5.687 7.25 v 39.29 C 78.22 86.656 74.876 90 70.766 90 z M 45 36.615 c -8.878 0 -17.756 1.091 -26.572 3.274 c -1.559 0.386 -2.647 1.771 -2.647 3.368 v 39.29 c 0 1.904 1.549 3.453 3.453 3.453 h 51.532 c 1.904 0 3.454 -1.549 3.454 -3.453 v -39.29 c 0 -1.597 -1.089 -2.982 -2.647 -3.368 C 62.756 37.707 53.878 36.615 45 36.615 z" style="stroke: none; stroke-width: 1; stroke-dasharray: none; stroke-linecap: butt; stroke-linejoin: miter; stroke-miterlimit: 10; fill: rgb(0,0,0); fill-rule: nonzero; opacity: 1;" transform=" matrix(1 0 0 1 0 0) " stroke-linecap="round" />
	<path d="M 67.3 38.878 c -1.104 0 -2 -0.896 -2 -2 V 24.299 C 65.3 13.106 56.193 4 45 4 c -11.193 0 -20.299 9.106 -20.299 20.299 v 12.579 c 0 1.104 -0.896 2 -2 2 s -2 -0.896 -2 -2 V 24.299 C 20.701 10.9 31.601 0 45 0 c 13.399 0 24.3 10.9 24.3 24.299 v 12.579 C 69.3 37.982 68.404 38.878 67.3 38.878 z" style="stroke: none; stroke-width: 1; stroke-dasharray: none; stroke-linecap: butt; stroke-linejoin: miter; stroke-miterlimit: 10; fill: rgb(0,0,0); fill-rule: nonzero; opacity: 1;" transform=" matrix(1 0 0 1 0 0) " stroke-linecap="round" />
	<path d="M 45 65.224 c -4.394 0 -7.969 -3.575 -7.969 -7.97 c 0 -4.394 3.575 -7.969 7.969 -7.969 c 4.394 0 7.969 3.575 7.969 7.969 C 52.969 61.648 49.394 65.224 45 65.224 z M 45 53.285 c -2.188 0 -3.969 1.78 -3.969 3.969 s 1.781 3.97 3.969 3.97 s 3.969 -1.781 3.969 -3.97 S 47.188 53.285 45 53.285 z" style="stroke: none; stroke-width: 1; stroke-dasharray: none; stroke-linecap: butt; stroke-linejoin: miter; stroke-miterlimit: 10; fill: rgb(0,0,0); fill-rule: nonzero; opacity: 1;" transform=" matrix(1 0 0 1 0 0) " stroke-linecap="round" />
	<path d="M 45 73.303 c -1.104 0 -2 -0.896 -2 -2 v -8.079 c 0 -1.104 0.896 -2 2 -2 s 2 0.896 2 2 v 8.079 C 47 72.407 46.104 73.303 45 73.303 z" style="stroke: none; stroke-width: 1; stroke-dasharray: none; stroke-linecap: butt; stroke-linejoin: miter; stroke-miterlimit: 10; fill: rgb(0,0,0); fill-rule: nonzero; opacity: 1;" transform=" matrix(1 0 0 1 0 0) " stroke-linecap="round" />
</g>
</svg>