<?xml version="1.0" encoding="utf-8"?>
<!-- Uploaded to: SVG Repo, www.svgrepo.com, Generator: SVG Repo Mixer Tools -->
<svg fill="#000000" width="800px" height="800px" viewBox="0 0 32 32" version="1.1" xmlns="http://www.w3.org/2000/svg">
<title>fire</title>
<path d="M24.387 10.717c-0.138-0.135-0.327-0.218-0.535-0.218-0.049 0-0.097 0.005-0.144 0.013l0.005-0.001c-0.248 0.050-0.449 0.217-0.545 0.439l-0.002 0.005c-0.464 1.058-1.169 1.936-2.048 2.593l-0.017 0.012c0.073-0.49 0.115-1.055 0.115-1.629 0-1.75-0.389-3.409-1.085-4.896l0.030 0.071c-1.22-2.547-3.264-4.537-5.78-5.658l-0.074-0.029c-0.088-0.039-0.19-0.061-0.297-0.061-0.415 0-0.751 0.336-0.751 0.751 0 0.045 0.004 0.089 0.012 0.132l-0.001-0.005c0.003 0.076 0.005 0.166 0.005 0.256 0 2.136-0.947 4.051-2.444 5.348l-0.009 0.008c-0.527 0.534-1.090 1.039-1.651 1.544-1.278 1.058-2.39 2.248-3.336 3.565l-0.038 0.056c-1.046 1.702-1.666 3.765-1.666 5.971 0 1.092 0.152 2.149 0.436 3.151l-0.020-0.081c0.736 3.011 2.586 5.5 5.077 7.058l0.048 0.028c1.817 1.16 4.030 1.855 6.405 1.867h0.003c0.004 0 0.010 0 0.015 0 0.505 0 1.003-0.033 1.49-0.098l-0.057 0.006c4.53-0.662 8.203-3.748 9.696-7.879l0.027-0.084c0.379-1.122 0.597-2.414 0.597-3.757 0-3.302-1.321-6.296-3.464-8.481l0.002 0.002zM25.83 22.471c-1.327 3.682-4.536 6.38-8.436 6.95l-0.057 0.007c-0.376 0.048-0.811 0.075-1.252 0.075-2.085 0-4.027-0.61-5.658-1.661l0.041 0.025c-2.213-1.381-3.824-3.55-4.451-6.105l-0.014-0.068c-0.236-0.811-0.372-1.743-0.372-2.707 0-1.903 0.53-3.683 1.45-5.199l-0.025 0.045c0.911-1.26 1.938-2.353 3.089-3.3l0.030-0.024c0.584-0.524 1.168-1.050 1.717-1.606 1.546-1.412 2.605-3.332 2.914-5.495l0.006-0.049c1.736 1.039 3.106 2.534 3.965 4.32l0.026 0.061c0.577 1.229 0.914 2.669 0.914 4.188 0 1.030-0.155 2.024-0.443 2.96l0.019-0.071c-0.021 0.065-0.032 0.14-0.032 0.218 0 0.414 0.336 0.75 0.75 0.75 0.101 0 0.198-0.020 0.285-0.056l-0.005 0.002c1.575-0.653 2.856-1.753 3.717-3.14l0.019-0.034c1.448 1.799 2.324 4.112 2.324 6.629 0 1.175-0.191 2.305-0.543 3.362l0.022-0.075z"></path>
</svg>